<?xml version="1.0" encoding="iso-8859-1"?>
<!-- Generator: Adobe Illustrator 17.1.0, SVG Export Plug-In . SVG Version: 6.00 Build 0)  -->
<!DOCTYPE svg PUBLIC "-//W3C//DTD SVG 1.1//EN" "http://www.w3.org/Graphics/SVG/1.1/DTD/svg11.dtd">
<svg version="1.1" id="Capa_1" xmlns="http://www.w3.org/2000/svg" xmlns:xlink="http://www.w3.org/1999/xlink" x="0px" y="0px"
	 viewBox="0 0 359.846 359.846" style="enable-background:new 0 0 359.846 359.846;" xml:space="preserve">
<path d="M46.948,191.206c6.441-9.722,8.338-13.438,1.841-20.386c-3.019-3.227-2.849-8.29,0.379-11.307
	c3.227-3.018,8.291-2.847,11.308,0.379c15.459,16.532,6.042,30.745-0.188,40.151c-6.441,9.722-8.338,13.438-1.84,20.386
	c3.018,3.227,2.848,8.29-0.38,11.307c-1.543,1.442-3.505,2.157-5.462,2.157c-2.138,0-4.271-0.852-5.846-2.536
	C31.301,214.825,40.718,200.612,46.948,191.206z M146.096,66.309c0-27.063,22.016-49.079,49.076-49.079
	c27.063,0,49.08,22.017,49.08,49.079c0,27.063-22.018,49.08-49.08,49.08C168.111,115.389,146.096,93.372,146.096,66.309z
	 M162.096,66.309c0,18.24,14.838,33.08,33.076,33.08c18.24,0,33.08-14.84,33.08-33.08c0-18.24-14.84-33.079-33.08-33.079
	C176.934,33.229,162.096,48.069,162.096,66.309z M225.425,254.731c0.583,0,1.175-0.064,1.767-0.198l23.27-5.246
	c4.311-0.972,7.017-5.253,6.045-9.563s-5.252-7.014-9.563-6.045l-23.27,5.246c-4.31,0.972-7.016,5.253-6.044,9.563
	C218.467,252.207,221.768,254.731,225.425,254.731z M359.846,334.614c0,4.418-3.582,8-8,8H76.089
	c-0.157,0.001-0.315,0.002-0.474,0.002h-0.004c-0.158,0-0.316-0.001-0.475-0.002H38.504c-4.418,0-8-3.582-8-8s3.582-8,8-8h2.672
	c-6.654-7.861-10.672-18.023-10.672-29.105v-13.83H18.589c-1.403,0-2.589,1.187-2.589,2.592v10.591c0,4.418-3.582,8-8,8
	s-8-3.582-8-8v-10.591c0-10.251,8.339-18.592,18.589-18.592h11.915V260.4c0-4.418,3.582-8,8-8h45.186v-87.969
	c0-2.415,1.091-4.701,2.969-6.22c1.878-1.52,4.345-2.107,6.703-1.604l29.054,6.209c14.692-13.293,32.481-20.029,52.913-20.029
	h39.689c20.296,0,37.996,6.646,52.607,19.753c0.102,0.091,0.2,0.184,0.296,0.278l29.068-6.211c2.362-0.505,4.826,0.084,6.703,1.604
	c1.878,1.519,2.969,3.805,2.969,6.22v49.494c19.902,27.805,32.75,46.327,35.367,52.774c1.365,3.366,0.292,7.229-2.614,9.409
	l-35.89,26.911c-0.723,0.554-1.543,0.988-2.43,1.271c-0.001,0-0.001,0-0.002,0c-0.004,0.001-0.009,0.003-0.013,0.004
	c-0.005,0.001-0.006,0.004-0.019,0.006c-0.81,0.254-1.61,0.381-2.48,0.366H120.153c-1.325,8.279-4.912,15.814-10.104,21.948h241.797
	C356.264,326.614,359.846,330.195,359.846,334.614z M306.661,280.668l17.602-13.198c-3.927-6.311-10.933-16.46-17.602-25.936
	V280.668z M143.122,167.241l52.05,11.124l52.057-11.124c-9.456-5.674-20.089-8.454-32.211-8.454h-39.689
	C163.223,158.787,152.581,161.568,143.122,167.241z M99.689,252.4h13.031c4.418,0,8,3.582,8,8v28.266h169.94V174.321l-87.489,18.696
	v71.657c0,4.418-3.582,8-8,8s-8-3.582-8-8v-71.657l-87.482-18.696V252.4z M104.721,268.4H46.504v29.109
	c0,15.922,12.852,28.9,28.727,29.105h0.766c15.873-0.205,28.725-13.183,28.725-29.105V268.4z M139.885,223.75l23.273,5.245
	c0.592,0.134,1.184,0.198,1.766,0.198c3.658,0,6.96-2.525,7.798-6.243c0.971-4.31-1.735-8.592-6.046-9.563l-23.273-5.245
	c-4.303-0.97-8.592,1.734-9.563,6.045C132.868,218.497,135.574,222.779,139.885,223.75z M225.425,222.959
	c0.583,0,1.175-0.064,1.768-0.198l46.54-10.492c4.31-0.972,7.016-5.253,6.044-9.563c-0.971-4.31-5.251-7.015-9.563-6.045
	l-46.54,10.492c-4.31,0.972-7.016,5.253-6.044,9.563C218.467,220.434,221.768,222.959,225.425,222.959z"/>
<g>
</g>
<g>
</g>
<g>
</g>
<g>
</g>
<g>
</g>
<g>
</g>
<g>
</g>
<g>
</g>
<g>
</g>
<g>
</g>
<g>
</g>
<g>
</g>
<g>
</g>
<g>
</g>
<g>
</g>
</svg>
